<?xml version="1.0" encoding="utf-8"?>
<svg xmlns="http://www.w3.org/2000/svg" xmlns:xlink="http://www.w3.org/1999/xlink" version= "1.1" width="720px" height="1358px" viewBox="0 0 720 1358">
<g id="layer1">
<g>
<g>
<g style="fill:rgb(31,22,22); fill-opacity:1.0; stroke-linejoin: miter">
<path d="M872.6787,587.4968L872.69666,692.6515L833.3761,661.1884L833.3761,1013.62463L287.39722,1013.62585L287.39722,654.8745L244.9049,692.64484L247.07181,587.0256L283.80377,551.04126L284.26077,551.0424L284.26077,349.65222L350.32397,349.6535L350.32397,497.3172L558.02704,316.70758L872.6824,587.4923 Z"/>
</g>
<g style="fill:rgb(31,22,22); fill-opacity:1.0; stroke-linejoin: miter">
<path d="M878.31604,587.49585L878.31604,587.4968L878.334,692.65063L869.17456,697.0532L829.854,665.5901L839.0134,661.1884L839.0134,1013.62463L833.3761,1019.2621L287.39722,1019.2632L281.75977,1013.62585L281.75977,654.8745L291.14236,659.0879L248.65015,696.8582L239.26877,692.5291L241.43567,586.90985L243.1268,582.99854L279.85876,547.0142L283.81787,545.404L284.27478,545.40497L278.6234,551.0424L278.6234,349.65222L284.26086,344.01483L350.32404,344.01605L355.96136,349.6535L355.96136,497.3172L346.62488,493.06317L554.3278,312.45358L561.7043,312.4346L876.3595,583.2194L877.0321,591.0783L877.0283,591.0828L878.31604,587.49585 M867.04126,587.4978L868.32886,583.9109L868.3325,583.9063L869.005,591.7652L554.3499,320.98047L561.7262,320.96155L354.023,501.5711L344.68665,497.3172L344.68665,349.6535L350.3239,355.29083L284.2607,355.28967L289.89813,349.65222L289.89813,551.0424L284.24677,556.6797L283.78983,556.67865L287.74887,555.06805L251.0169,591.0526L252.70804,587.1411L250.54114,692.7604L241.1597,688.43134L283.65192,650.6611L293.03458,654.8745L293.03458,1013.62585L287.39722,1007.9884L833.3761,1007.9874L827.7387,1013.62463L827.7387,661.1884L836.89825,656.7867L876.219,688.25L867.0593,692.6526L867.04126,587.4978 Z"/>
</g>
</g>
</g>
<g style="fill:rgb(255,235,0); fill-opacity:1.0; stroke-linejoin: miter">
<path d="M569.3393,545.13513C448.78748,545.13513,353.07068,633.6024,353.07062,740.3708C353.07056,847.1387,448.78754,935.6061,569.3392,935.6061L569.3393,935.60706C689.89124,935.6061,785.60815,847.1387,785.6083,740.3708C785.6083,633.6024,689.8911,545.13513,569.3393,545.13513 Z"/>
</g>
<g style="fill:rgb(0,0,0); fill-opacity:1.0; stroke-linejoin: miter">
<path d="M635.87994,619.21545L635.87994,619.2167C635.8108,619.21545,635.74255,619.24945,635.71106,619.328C635.63513,619.51715,635.7788,619.693,635.98334,619.6929C635.9993,619.6929,636.01605,619.69183,636.0327,619.68964C636.1481,619.6741,636.20026,619.576,636.1577,619.4515C636.10596,619.3002,635.98663,619.21533,635.87994,619.21545L635.87994,619.2167 Z M629.14496,672.2221L629.14496,672.2233C629.1727,672.2286,629.2266,672.2922,629.30646,672.42413C629.4233,672.6175,629.50885,672.8424,629.477,672.9233C629.469,672.9434,629.4526,672.951,629.4374,672.951C629.39514,672.951,629.3402,672.88025,629.2849,672.7529C629.14526,672.43146,629.0971,672.2336,629.13684,672.2221L629.14496,672.2233 Z M639.73096,746.4902L639.73096,746.4914C639.7316,746.4902,639.73224,746.4902,639.7332,746.4902L639.7291,746.4928C639.72974,746.4902,639.7302,746.4902,639.73096,746.4902L639.73096,746.4914 Z M639.7353,746.4905L639.7353,746.4917C639.79175,746.4998,640.0652,746.66364,640.3413,746.87854C640.98334,747.37823,641.13367,747.67096,640.97284,748.0992C640.8583,748.40436,640.45404,748.6228,640.1103,748.6228C639.97833,748.6228,639.85706,748.5899,639.76385,748.5205C639.31714,748.18787,639.2935,746.5533,639.72705,746.4905L639.7353,746.4917 Z M661.95105,702.8563L661.95105,702.85754C662.4166,702.8563,663.5435,703.4354,664.63196,704.2442C666.51794,705.64557,667.6022,706.9173,668.49054,708.7536C669.38074,710.59375,669.6137,711.4217,669.397,712.05054C669.1804,712.6789,668.72626,713.28656,668.29047,713.5406C667.915,713.75934,666.8804,715.0408,666.3297,715.96545C666.1551,716.2586,665.8857,716.8828,665.73254,717.3619C665.57227,717.8634,665.18823,718.58044,664.8136,719.08795C663.96094,720.2431,663.1859,721.68915,662.7565,722.94794C662.5661,723.50604,662.15955,724.3797,661.85333,724.8931C661.5513,725.39954,661.08905,726.2518,660.8123,726.77893C660.5372,727.3031,660.03033,727.9868,659.698,728.3091C659.36005,728.63666,658.886,729.2413,658.6259,729.6645C658.3712,730.0791,657.8735,730.804,657.5232,731.28406C657.17816,731.75696,656.5515,732.71655,656.1247,733.4258C655.7073,734.11945,654.93695,735.1875,654.4412,735.77527C653.9337,736.3769,653.4618,737.00305,653.40137,737.1781C653.3391,737.3585,653.08923,737.6546,652.85156,737.85095C652.6191,738.04297,652.24603,738.5724,652.03143,739.0422C651.54834,740.0993,651.6306,739.9561,650.70294,741.3183C650.121,742.173,649.67596,742.86304,649.333,743.44775L649.32446,743.4502L648.4308,744.6171L648.43933,744.6197C648.16034,745.17444,647.83905,745.7059,647.46906,746.2359L647.4776,746.2385C647.4478,746.6583,647.3828,746.9035,647.317,747.0006C647.25745,747.08856,647.138,747.1435,646.92145,747.1435C646.8842,747.1435,646.8446,747.14197,646.8027,747.1392L646.7942,747.14185C646.71106,747.24384,646.62476,747.34796,646.53894,747.455C645.53687,748.7051,643.65857,753.374,642.0816,758.2213C641.89813,758.218,641.7165,758.2159,641.53644,758.2151L641.528,758.2175C641.4495,757.9449,641.2682,757.4577,641.07196,757.00684C640.64233,756.0199,640.3358,755.09595,640.18933,754.3848C640.1527,754.20734,640.01434,753.7294,639.86536,753.31934C639.56213,752.4852,639.3468,750.389,639.52075,749.9351C639.5891,749.7568,639.8161,749.5998,640.15436,749.4988C640.99536,749.2477,641.9365,748.5963,642.0988,748.13226C642.3432,747.4336,641.8326,746.40485,640.8616,745.6879C640.57465,745.47614,640.1872,745.12524,640.0155,744.91345C639.5478,744.33636,639.55914,743.2639,640.0488,741.6225C640.42596,740.3583,642.70605,735.4015,642.924,735.37244C642.988,735.36395,643.14246,735.0994,643.26434,734.7926C643.60187,733.943,645.2365,730.60297,645.44855,730.31586C645.5461,730.1838,645.6322,730.0307,645.62714,729.9924C645.60156,729.8002,646.97174,727.40625,647.64996,726.46375C648.05096,725.90656,648.4702,725.2241,648.5962,724.9426C648.8425,724.3923,649.4242,723.72174,650.0702,723.2734C650.26294,723.1396,650.4461,723.0758,650.6166,723.0758C650.9081,723.0758,651.16785,723.2683,651.3994,723.65784C651.78735,724.3104,652.7301,725.13824,653.44586,725.4212C653.73975,725.5374,653.94293,725.59125,654.14594,725.59125C654.2854,725.59125,654.42365,725.5622,654.5934,725.51666C655.3866,725.3038,655.96326,724.85144,656.1416,724.3075C656.31635,723.7744,656.81226,723.46405,657.61346,723.408C658.8928,723.3186,659.34204,723.1657,659.67554,722.73016C659.9979,722.30914,660.0473,721.59845,659.77045,721.47845C659.7013,721.4485,659.58527,721.21484,659.50836,720.9784C659.4307,720.7396,659.1935,720.2768,658.9827,719.9655C658.7721,719.65436,658.4304,719.0478,658.21735,718.61957C657.73645,717.653,657.51013,717.3318,656.9285,716.76874C656.6573,716.50616,656.4966,716.26514,656.5521,716.19257C656.6077,716.12,657.25275,715.96796,657.98004,715.84674C659.5496,715.58527,660.0387,715.33905,660.5185,714.5321L660.8496,713.9795L660.53357,713.56494C660.3459,713.32904,659.9627,713.0187,659.68335,712.85596C659.3974,712.6894,658.85565,712.34357,658.48444,712.0763C658.1057,711.8035,657.6516,711.50946,657.48505,711.42566C656.68744,711.0244,655.273,710.042,654.7849,709.55383C654.34064,709.1095,654.24725,708.92114,654.1895,708.407C654.10297,707.63586,654.4376,707.1438,655.4988,706.57697C655.89923,706.3631,656.3388,706.1261,656.47296,706.05615C656.60736,705.98615,657.10376,705.7084,657.5686,705.4678C658.7637,704.84924,659.9885,704.14276,660.0518,704.02997C660.1152,703.9173,661.7638,702.8769,661.8921,702.85986C661.91046,702.8574,661.93,702.8563,661.95105,702.8563L661.95105,702.85754 Z M570.81726,812.2293L570.81726,812.2305C571.3451,812.2293,571.6035,813.11273,571.6035,814.8573C571.6035,816.79285,570.67926,817.9501,569.2855,817.9501C568.89026,817.9501,568.46686,817.8325,567.997,817.6623C567.0438,817.3169,567.1497,816.80365,568.6383,814.53656C569.6378,813.0144,570.3266,812.2293,570.81726,812.2293L570.81726,812.2305 Z M577.8548,816.38007L577.8548,816.3813C578.65625,816.38007,579.69824,816.7808,580.25916,817.34174C581.62164,818.7044,581.46136,821.189,580.0189,821.189C579.3777,821.189,578.31903,820.07605,577.6144,818.7843C576.39526,816.5494,576.4921,816.38007,577.8548,816.38007L577.8548,816.3813 Z M426.33984,612.8775L426.33984,612.8787C426.30035,612.8815,426.2602,612.885,426.2196,612.8918C425.73865,612.9712,423.41345,613.28033,421.17078,613.533C417.72302,613.9215,416.3324,614.6241,413.63702,617.2195C409.8402,620.8754,404.32263,628.43054,401.6153,633.6493C398.79266,639.0902,399.1361,649.11676,403.37854,698.5671C404.2655,708.9054,405.2921,718.68585,405.7025,720.28613C406.09375,721.81165,407.9502,725.0924,409.71002,727.49896C417.32727,737.9158,417.22778,737.7507,416.2818,739.8417C415.70496,741.11676,414.27832,742.0856,412.11432,742.64655C407.7865,743.76855,406.15216,746.4178,406.82477,750.90137C407.3545,754.43286,405.7962,758.76355,400.49347,767.8926C399.46478,769.6636,398.5957,771.74005,398.56982,772.54083C398.51544,774.2251,396.14435,778.8404,395.0434,779.5936C394.6198,779.88336,392.95966,780.39496,391.3567,780.6354C389.75378,780.87573,386.76025,782.3593,384.6245,783.92126C381.38995,786.2868,380.85754,787.1268,380.85754,789.45087C380.85748,792.29626,380.4923,792.89813,371.8476,792.89813C369.77814,792.89813,367.23438,792.8621,364.1073,792.81726C361.6358,792.78174,359.6574,792.76,358.0641,792.76C352.16498,792.76,351.5504,793.0829,350.7232,794.3401C349.9289,795.5471,349.60095,800.27094,349.60095,813.5748L349.44092,831.2071L408.34747,831.4476L455.81238,831.57684L455.8059,831.5791C456.7874,831.7029,457.664,831.78033,458.43494,831.8251C459.0985,831.8635,459.73187,831.8897,460.33582,831.8897C461.61395,831.8897,462.75946,831.79254,463.77234,831.5986L463.77893,831.601L467.25452,831.60803L469.0177,829.44403C470.02588,828.15765,470.38568,827.33875,469.7047,826.82385L469.69812,826.8263C470.54413,824.58545,470.81738,821.53076,470.51788,817.66235L470.51062,817.6651C470.578,815.5286,470.62054,812.95874,470.62054,810.28894L470.62048,798.7483L467.89557,795.7028L465.17065,792.7375L457.55676,792.65704C449.14136,792.4969,447.83502,792.088,448.58044,789.852C449.11755,788.241,445.58783,784.37585,441.7682,782.39874C438.77466,780.8493,430.06702,779.5135,422.61353,779.5137L415.96143,779.5159L416.362,776.8684C417.08325,772.4609,418.99792,764.601,419.64813,763.56464C419.85107,763.24115,420.0559,763.08466,420.27087,763.08466C420.544,763.08466,420.84735,763.347,421.25098,763.8852C421.97235,764.847,423.65533,765.2475,427.74286,765.32745L428.86566,765.35974L428.86566,765.3622L426.34613,612.8775L426.33984,612.8787 Z M756.5484,807.99664L756.5484,807.99786C757.05444,807.99646,757.2334,811.58624,757.38043,823.19244C757.50116,832.72943,757.94147,840.3439,758.3423,840.7446C758.82306,841.22546,759.14374,843.95044,759.14374,846.9155C759.14374,850.442,760.1492,856.04114,762.02875,863.3456C767.2021,883.45044,768.6011,913.6764,764.7539,921.37024C764.4332,922.0116,763.5579,924.0177,762.83014,925.7782C761.0731,930.02844,755.85455,935.5432,752.9727,936.27795C751.767,936.5853,750.3943,937.0596,749.927,937.39966C748.5772,938.3821,744.75146,939.45886,742.99805,939.45886C742.64716,939.45886,742.38336,939.41125,742.23303,939.32336C741.6753,938.9971,742.63153,937.5576,744.87775,935.3959C746.87866,933.47034,749.81036,929.3668,751.44977,926.1793C754.1386,920.95105,754.4557,919.9247,754.0945,915.84045C753.4137,908.14294,752.65186,906.0626,749.52625,902.93713C746.6409,900.052,745.2783,899.49084,737.50415,898.2886L733.89777,897.72754L733.41675,888.9115C733.1762,884.0231,732.4223,878.0792,731.7336,875.68774C729.5368,868.0602,728.4314,862.29944,728.9286,860.3799C729.51306,858.1228,732.8742,854.3967,734.1503,854.3967C734.23627,854.3967,734.3192,854.40405,734.37836,854.4491C734.78656,854.7604,735.1,855.65125,735.0999,856.4525C735.0998,857.73486,740.2294,862.865,741.5919,862.865C741.8323,862.865,743.27167,862.05896,744.79736,861.02124C747.27875,859.3336,747.5858,858.7755,748.08344,854.0488C748.38745,851.1614,749.0452,846.6752,749.52606,844.03076C750.00696,841.3861,750.72833,837.218,751.129,834.814C751.5299,832.4095,752.25104,828.4021,752.65186,825.99774C753.0526,823.5934,753.7348,819.26,754.17474,816.38025C754.61633,813.4891,755.4548,810.0477,756.0177,808.76624C756.2287,808.28595,756.40436,807.99664,756.5484,807.99664L756.5484,807.99786 Z M470.62054,834.0125L470.62054,834.01373L343.59027,834.0923L341.42627,836.01556C339.34247,837.77905,339.1822,838.4203,339.18213,843.86975L339.18213,849.8804L342.0675,851.24316C343.91083,852.12463,347.1966,852.60535,351.44434,852.68567L358.01642,852.8458C372.92743,853.42395,374.28583,853.0862,374.28583,853.0862C374.7823,852.96277,395.0537,852.8822,417.81836,852.8823C446.97284,852.8823,480.20172,853.03735,481.1997,853.1669C481.5971,853.2184,481.92114,876.5696,482.0011,905.1012L482.24182,957.0354L495.86633,957.0375L496.1065,905.42114C496.1869,875.20654,496.56775,853.54114,496.98822,853.2468C497.3711,852.97876,519.58936,852.8462,546.358,852.8462C573.1263,852.8462,595.1523,852.59827,595.3264,852.2848C595.55334,851.87646,597.3105,850.88086,599.17334,850.04114C603.0015,848.31555,603.6615,847.31604,603.6615,842.9081C603.6615,840.5038,603.10046,839.3816,600.6159,836.9774L597.5705,834.01227L470.62054,834.0125 Z M673.14886,586.1742L673.14886,586.1754C672.86365,586.1742,672.619,586.2389,672.3964,586.37036C671.9725,586.62085,671.665,587.14575,670.9355,588.9247C670.66956,589.57324,670.34186,590.1724,670.2254,590.2582C670.1042,590.3475,669.53674,590.57153,668.94763,590.7535C668.16174,590.9962,667.7813,591.0728,667.13464,591.0728C667.0496,591.0728,666.9597,591.07153,666.86365,591.06915C666.78687,591.0672,666.7089,591.06683,666.62964,591.06683C665.0358,591.06683,662.99384,591.3747,662.295,591.72723C661.13416,592.31274,660.48865,593.2947,659.92334,595.3806C659.74445,596.0407,659.7196,596.5686,659.7936,597.7452C659.8488,598.6251,659.8283,599.38385,659.7479,599.564C659.66736,599.7445,659.35913,600.0834,659.0542,600.3342C658.7357,600.5963,658.4988,600.8646,658.5072,600.92865C658.5174,601.0057,658.23865,601.25415,657.9001,601.4656C657.04626,601.99896,656.8227,602.27454,656.53625,603.0809C656.40466,603.45166,656.0351,604.09045,655.7194,604.4933C655.0087,605.40015,654.1581,606.90344,653.9671,607.6082C653.8428,608.067,653.6576,609.20154,653.43774,610.99115C653.4068,611.243,653.4438,611.96814,653.53467,612.6084C653.64374,613.37646,653.6404,614.0276,653.5464,614.5634C653.46954,615.0021,653.37225,615.61615,653.3333,615.90826C653.2218,616.74457,653.0904,616.82947,651.28033,617.14575C650.2521,617.3254,649.6405,617.3888,648.74945,617.3888C648.5142,617.3888,648.2594,617.38513,647.97235,617.3759C647.7253,617.368,647.4672,617.3625,647.2007,617.3625C644.31274,617.3625,640.447,617.86633,639.4373,618.41675C639.33594,618.47205,639.151,618.5197,639.0339,618.5226C638.90424,618.5258,638.64056,618.8323,638.3918,619.28546C638.1153,619.78894,637.78204,620.179,637.4206,620.41876C636.2837,621.17316,635.6744,621.98267,633.83044,625.2117C633.7163,625.4116,633.5618,625.8471,633.4882,626.1701C633.191,627.47437,632.90106,629.11694,632.92993,629.33514C632.991,629.79663,632.65515,632.3593,632.4413,633.0257C632.3229,633.3945,632.1887,633.9974,632.1497,634.3684C632.0332,635.47876,631.676,636.42145,631.2595,636.7034C631.05347,636.84296,630.51086,637.0551,630.0537,637.1503C628.9626,637.3778,628.6564,637.6112,628.15955,638.6016C627.9344,639.05035,627.6454,639.52155,627.50354,639.6538C627.12317,640.00836,626.7791,640.78,625.9314,643.2402C625.244,645.2352,625.13226,645.71844,625.0702,646.8753C625.0308,647.61,624.96765,648.6218,624.92316,649.1119C624.7771,650.72144,624.86615,652.211,625.3448,656.71234C625.60474,659.156,625.9118,662.1931,626.03345,663.48096C626.2342,665.6063,626.27716,665.8095,626.4796,665.8609C626.6146,665.89514,626.6862,665.9737,626.648,666.0473C626.6133,666.11414,626.8537,667.01135,627.1711,668.0254C627.6454,669.5405,627.8306,669.9743,628.2058,670.41815C628.4651,670.7249,628.6873,671.07166,628.7024,671.21313C628.7152,671.33307,628.71643,671.39154,628.69635,671.39154C628.6782,671.39154,628.63983,671.3409,628.5632,671.24457C628.46124,671.11633,628.3767,671.0589,628.32764,671.05585L628.3192,671.0585C628.25024,671.0607,628.27203,671.1849,628.41364,671.39496C628.53986,671.58215,628.646,671.78143,628.6577,671.8581C628.7453,672.4332,629.1961,673.01996,630.12665,673.7892C630.6957,674.2596,631.2249,674.6208,631.3277,674.6208C631.3294,674.6208,631.33093,674.6209,631.33246,674.6205C631.3484,674.61646,631.3629,674.6144,631.3764,674.6144C631.4578,674.6144,631.4812,674.6872,631.45276,674.83905C631.4276,674.9731,631.43787,675.0346,631.4747,675.0346C631.49225,675.0346,631.5186,675.0227,631.55176,674.9957C631.5939,674.9615,631.6218,674.9412,631.6395,674.9385L631.648,674.9409C631.66675,674.94226,631.6651,674.97766,631.6354,675.0366C631.58527,675.1361,631.67065,675.3063,631.8034,675.41876C631.95013,675.54315,632.04474,675.7523,632.0252,675.91113C632.008,676.0512,632.04297,676.15955,632.11383,676.15955C632.1169,676.15955,632.1201,676.1592,632.1234,676.15875C632.1238,676.1587,632.1241,676.15875,632.1243,676.15875L632.1327,676.16125C632.4431,676.1926,632.40704,680.0396,632.07135,683.3387C632.03094,683.73505,631.9813,684.47363,631.9634,684.9834C631.94574,685.48285,631.8512,686.4982,631.7653,687.2268C631.6794,687.9558,631.62585,688.92786,631.65967,689.38L631.71716,690.20703L632.7537,690.94336C633.6341,691.58295,633.89856,691.69995,634.5995,691.78094C634.9614,691.8228,635.4544,691.8559,635.80927,691.8559C635.8973,691.8559,635.9766,691.8537,636.04346,691.85034C636.0828,691.8484,636.12177,691.8478,636.15955,691.8478C636.8161,691.8478,637.2111,692.10016,637.27075,692.54865C637.3185,692.90765,637.2265,694.1469,637.06195,695.30206C636.96545,695.9789,637.1534,696.7149,637.4133,696.7149C637.41956,696.7149,637.4256,696.7147,637.43176,696.7138C637.43353,696.7135,637.43555,696.7132,637.4377,696.7132C637.509,696.7132,637.73,696.85004,637.9568,697.0353C638.1669,697.2069,638.4321,697.3476,638.54456,697.3476C638.54956,697.3476,638.5545,697.3473,638.5589,697.3466C638.56305,697.346,638.56726,697.3457,638.5717,697.3457C638.8135,697.3457,639.7891,698.09174,640.1977,698.58997C640.46625,698.9174,640.67194,699.8052,640.47955,699.8306C640.30023,699.85443,640.7205,701.1693,641.0022,701.5089C641.1396,701.67456,641.67316,701.93994,642.1773,702.10944C643.12,702.4262,643.5677,702.7336,643.6249,703.09143C643.64325,703.2063,643.70544,703.3196,643.76135,703.33417C644.00287,703.3975,644.5433,704.11743,644.584,704.4248C644.6078,704.60443,644.7811,705.0247,644.9695,705.3647C645.158,705.705,645.32605,706.087,645.3431,706.215C645.3841,706.5229,645.0305,706.9165,644.5242,707.11945C644.29987,707.20935,643.95386,707.3584,643.7474,707.45734C642.2615,708.1696,641.96423,708.2712,641.01355,708.3807C639.70337,708.53156,638.5876,708.96466,637.21387,709.82355C635.91376,710.6365,634.8297,711.21185,632.6391,712.2037C631.28625,712.81616,629.8719,713.9535,629.67847,714.5658C629.0633,716.51263,629.0006,716.7925,628.5123,720.52423C628.37885,721.5441,628.2367,722.5323,628.1905,722.7187C628.14307,722.9101,628.09436,723.1086,628.08344,723.18945C628.0745,723.255,627.98096,724.0363,627.86865,724.9137C627.75665,725.7877,627.6191,727.1512,627.55475,727.95514C627.4914,728.7463,627.3682,730.2347,627.27466,731.25287C627.18134,732.268,627.0833,733.54736,627.05054,734.0865C627.01776,734.6256,626.95953,735.16797,626.9346,735.2758C626.8848,735.49097,626.8926,735.699,626.94666,736.44806C626.9627,736.6711,626.94543,736.7877,626.9,736.7877C626.885,736.7877,626.8658,736.7751,626.843,736.74884C626.83234,736.7365,626.824,736.72894,626.81696,736.7268L626.80865,736.72925C626.7735,736.7398,626.79846,736.93567,626.87085,737.2533C626.96106,737.64935,626.9678,737.858,626.89343,737.858C626.887,737.858,626.87964,737.8571,626.8723,737.8532C626.85846,737.8459,626.84467,737.84143,626.83,737.84143C626.76794,737.84143,626.6934,737.9094,626.6713,738.0104C626.6426,738.1422,626.6898,738.25964,626.7583,738.2727C626.971,738.31354,626.97235,738.60956,626.7783,738.8178C626.5896,739.0202,626.60596,739.46686,626.79517,739.46686C626.8006,739.46686,626.8063,739.46625,626.8122,739.46545C626.8161,739.465,626.8201,739.465,626.824,739.465C626.88025,739.465,626.9099,739.5227,626.8803,739.5868C626.848,739.65686,626.7906,739.69244,626.7413,739.69244C626.7308,739.69244,626.7205,739.6912,626.71124,739.6874C626.70557,739.6851,626.7004,739.6831,626.69525,739.6831C626.6486,739.6831,626.6231,739.80994,626.64606,739.9833C626.6715,740.1755,626.5702,740.76416,626.41534,741.2918C626.148,742.2026,626.1372,742.295,626.3626,743.0592C626.4925,743.49963,626.7561,744.2456,626.9346,744.718C627.1783,745.36334,627.2821,745.89825,627.35175,746.87964C627.4021,747.5908,627.5544,748.5738,627.6936,749.0646C628.31384,751.25116,628.87415,753.0422,629.044,753.346C629.3017,753.80695,629.4888,755.32153,629.4205,756.2826C629.3886,756.7301,629.46356,757.8288,629.6264,758.916C629.7231,759.56195,629.8458,760.3603,629.9452,761.0389L629.93713,761.0414C629.1417,761.6924,628.5275,762.46063,628.0828,763.3403C627.06696,765.34955,627.0648,768.25555,628.0583,772.07184C629.0536,775.89465,631.1151,780.8707,634.22906,787.01465C636.1359,790.77704,639.0573,796.09247,643.03644,802.939L643.0279,802.94147L643.1255,803.7495C643.2223,804.4171,643.1222,804.95575,642.75214,805.2901C640.88416,806.9778,639.15857,807.96796,637.64514,808.33923C637.68677,808.43787,636.9456,808.5025,635.4216,808.5331L635.42993,808.5356L635.31903,810.2892L628.2663,810.0486C627.3391,810.01715,626.4888,810.0011,625.7149,810.0011C622.54297,810.0009,620.6797,810.29816,620.011,810.85004C619.393,811.36005,616.64685,811.9146,613.9199,812.1321C613.2304,812.1871,612.61584,812.1858,612.0522,812.1858C608.3667,812.186,606.7833,811.2858,599.6541,805.96106C598.0998,804.8002,595.2575,803.3597,593.2425,802.75525C591.2498,802.1575,589.1673,801.2979,588.6745,800.91205C588.3353,800.6465,587.40985,800.5361,586.3233,800.5361C585.6717,800.5361,584.95514,800.56335,584.26654,800.6716C582.3402,800.9743,578.3335,801.3656,575.20996,801.63324C569.9182,802.0867,566.7948,803.4766,566.79486,805.3999C566.79486,805.80084,565.75037,807.4017,564.3904,808.9267C563.10565,810.3674,561.9861,812.2927,561.9861,813.0939C561.986,815.34827,560.744,816.2052,556.7205,816.2052C555.7373,816.2052,554.58813,816.15015,553.2501,816.0595C549.64374,815.8153,543.79333,815.33563,540.1865,815.0979C536.5,814.8549,533.13245,814.29767,532.6529,813.8953C532.4804,813.7506,532.2887,813.67676,532.0754,813.67676C531.5885,813.67676,530.98975,814.0455,530.3288,814.77716C529.44617,815.7543,528.54584,816.2646,527.34827,816.2646C525.9131,816.2646,524.05646,815.5503,521.3525,814.05585C519.04407,812.77997,517.9944,812.1967,517.18665,812.1967C516.5333,812.1967,516.04297,812.5751,515.18115,813.2544C513.9229,814.2461,513.091,814.7037,512.2363,814.7037C511.56848,814.7037,510.8731,814.4445,509.97174,813.8959C509.46112,813.585,509.04016,813.3724,508.5572,813.3724C507.40558,813.3724,505.94336,814.42413,502.75873,817.3418C499.9995,819.86975,499.47296,820.86835,499.47296,823.43304C499.47296,825.8372,500.03387,827.0395,502.1178,829.0432L504.7625,831.60803L545.8769,831.6102C550.8449,831.6188,555.22925,831.6252,559.10095,831.6252C583.27466,831.62506,587.45953,831.3653,588.9148,830.4055C591.2345,828.8755,591.3234,827.5153,589.23535,825.5966C588.35815,824.7906,587.6325,823.8337,587.6325,823.43274C587.6325,822.9549,587.8931,822.7299,588.3371,822.7299C589.3084,822.7299,591.14594,823.81903,593.0824,825.67676C596.4369,828.8948,599.492,830.4988,603.9819,831.12683C605.9526,831.4025,607.1596,831.8683,607.7289,832.6807C611.3582,832.37177,614.5593,832.2173,617.33234,832.2173C617.4075,832.2173,617.4825,832.2172,617.5573,832.21747L617.57263,832.2176C621.8132,832.23364,624.83374,832.6341,626.62756,833.4349C628.3265,834.1933,629.0428,835.4434,628.6287,837.1344C628.0365,839.5531,626.06793,841.88074,622.87274,844.1504C622.7316,844.2506,622.5868,844.3439,622.4427,844.4365L622.45087,844.4391C622.66595,845.4225,617.7116,848.438,615.9237,848.438C615.20245,848.438,613.09265,849.7699,611.19507,851.4033C603.8756,857.7042,601.4173,859.65845,600.7762,859.65845C600.37537,859.65857,598.9119,860.7572,597.4903,862.06274C594.9845,864.364,594.76544,864.46704,586.3504,864.4673C581.6218,864.4674,576.66504,864.824,575.2902,865.2688C573.93915,865.7058,567.4327,866.9321,560.78406,868.0741C538.5002,871.90137,532.08026,873.3408,527.5234,875.687C523.98566,877.50854,522.5531,879.13306,520.3104,883.86194C518.8662,886.907,518.6312,888.5902,518.9478,893.07886C519.51294,901.093,520.1497,902.93665,523.9969,907.10425C525.9205,909.188,527.52356,911.5122,527.52356,912.3137C527.52356,913.11523,528.2919,915.37427,529.20654,917.3628C530.13544,919.3821,531.3783,922.9708,532.0115,925.3771C533.38184,930.5845,533.508,931.0,537.8623,940.04395C539.7592,943.9839,542.09515,949.0272,543.1519,951.34424C544.1789,953.59595,545.5472,955.9242,546.19775,956.4741C546.89703,957.0652,550.98016,957.3229,561.5405,957.3229C564.11896,957.3229,567.08435,957.30725,570.4817,957.2754L593.6437,957.0349L593.88403,951.5852C594.04425,947.41785,593.7106,945.501,592.5212,943.1697C591.707,941.5737,590.471,938.3728,589.9568,936.1974C589.4288,933.96375,587.7095,929.38635,586.1898,926.0187C583.94403,921.04175,583.30994,918.7135,584.2784,918.7064L584.2872,918.70886C584.7392,918.7095,585.5319,919.2101,586.67096,920.16797C588.39026,921.614,589.07477,922.0936,591.59674,922.0936C592.71545,922.0936,594.1949,921.9918,596.28827,921.8512C597.80524,921.74927,600.24603,921.7113,603.1466,921.7112C607.5998,921.71106,613.1375,921.81714,618.08813,922.01135L632.8347,922.572L632.59406,926.73987C632.51404,929.0641,632.8436,932.34717,633.3956,933.953C634.60693,937.47644,637.0824,941.4066,638.12427,941.4066C638.52515,941.4066,641.15656,942.8701,644.0549,944.6926C647.5849,946.91235,648.9991,947.6007,650.63617,947.6007C651.14703,947.6007,651.68146,947.5359,652.30963,947.4177C653.9935,947.1008,660.645,946.69653,667.21686,946.45557L678.99817,946.13513L678.9983,950.54346C678.99835,957.2754,679.3992,957.43604,693.3445,957.43604C699.8364,957.43616,705.36664,957.1958,705.6071,956.95544C705.84753,956.7152,705.56915,954.64136,704.96576,952.3871C703.5957,947.2689,703.40845,946.2815,705.53156,946.2815C705.96344,946.2815,706.49207,946.32837,707.1294,946.3762C710.4148,946.6229,710.5261,946.7666,711.7778,950.6238C713.67615,956.47375,713.4952,957.3767,720.139,957.3767C721.7641,957.3767,723.7965,957.32336,726.3646,957.27576L737.90576,957.0359L738.1462,953.26904C738.4663,948.9407,738.8762,948.5681,744.7176,946.6968C747.1312,945.9236,751.0491,944.37244,753.3733,943.3303C755.69727,942.28845,757.94165,941.40674,758.4225,941.40674C759.94543,941.40674,770.3639,930.8274,770.3639,929.30457C770.3639,928.5033,770.755,927.60486,771.16547,927.381C771.63727,927.12366,771.96655,926.01855,771.9666,924.9768C771.9667,923.9347,772.37427,922.82324,772.76855,922.57227C773.2561,922.26196,773.56976,916.4011,773.5697,907.74524C773.5696,899.0896,773.25604,893.2291,772.76843,892.91895C772.3741,892.6681,771.96686,889.07166,771.96686,884.98425C771.96686,880.9773,771.6268,877.3093,771.24554,876.89C770.8245,876.427,770.32336,873.20105,770.12317,869.67664C769.9228,866.1481,769.31714,861.1018,768.841,858.45605C767.87476,853.0873,766.75543,846.2743,765.39484,837.2179C764.19086,829.20386,764.47754,814.84515,765.9557,810.68964C767.4427,806.50934,767.5636,796.09735,766.1961,794.901C765.6399,794.4144,764.1133,793.93054,762.7499,793.779C760.50684,793.5297,760.3028,793.3757,760.50555,790.3326C760.6233,788.566,761.3433,785.3765,762.10864,783.1196C764.4688,776.15906,763.3888,769.7437,759.7843,768.85394C759.43884,768.7686,759.02716,768.71686,758.5624,768.71686C758.1998,768.71686,757.8058,768.74335,757.38916,768.7933L757.3986,768.7958L746.2246,774.03406L746.2339,774.0367C745.8846,774.2499,745.58105,774.39,745.3505,774.43945L745.3601,774.4421L744.227,774.97107L744.23645,774.97363C743.75903,775.39667,743.3328,775.75824,742.9242,776.0056C742.64575,776.17413,742.41187,776.2313,742.2532,776.2313C742.2225,776.2313,742.19275,776.2331,742.16846,776.2231C742.01587,776.16,741.86816,776.08496,741.7196,776.0111L741.70996,776.01355L741.70996,776.0111L741.70996,776.01373L741.83075,776.2451L742.09686,776.7609C741.69403,776.3612,741.29706,775.96533,740.90594,775.57324L740.91504,775.57587C740.363,775.24695,739.8257,774.8713,739.3033,774.4488L739.31256,774.4511L738.6204,774.1613C738.49207,774.1077,738.34436,774.03937,738.17865,773.9535C737.38727,773.54376,737.0039,773.3355,737.02716,773.33154L737.02924,773.33417L736.71826,773.1107L736.70886,773.1133C730.48596,750.36646,723.8088,734.1887,716.4713,724.7386C713.4717,720.87524,710.1742,717.94727,706.78265,715.79346L706.77356,715.7961C706.6493,715.6092,706.51984,715.4181,706.3872,715.2182C705.75073,714.25946,705.1157,713.3753,704.95154,713.2436C704.79456,713.1176,704.1723,712.2631,703.55206,711.3425C702.93823,710.4314,702.1907,709.37384,701.88434,708.9945C701.5823,708.62036,701.00696,707.7308,700.6042,707.0124C700.2038,706.29803,699.6727,705.41547,699.43176,705.0549C699.1844,704.68475,698.8921,704.13544,698.7617,703.8397C698.6313,703.54407,698.1141,702.7342,697.6001,702.0635C697.0889,701.3965,696.519,700.61646,696.3538,700.3374C696.1826,700.0481,695.69617,699.4977,695.2637,699.09937C694.5819,698.47144,694.464,698.2797,694.2159,697.4912C694.0583,696.9902,693.8181,696.41943,693.6676,696.2075C693.51337,695.9903,693.3762,695.68506,693.3541,695.5186C693.3321,695.3518,693.2699,695.17755,693.21204,695.1331C693.08136,695.03296,691.84717,691.92316,691.91376,691.8361C691.91956,691.82855,691.92896,691.82495,691.9413,691.82495C691.9765,691.82495,692.0344,691.8562,692.0814,691.91833C692.1341,691.98785,692.39166,692.0184,692.71027,692.0184C693.2576,692.0184,693.9836,691.9275,694.1649,691.79846C694.4383,691.6039,694.52875,691.0197,694.49115,689.9293C694.4508,688.7607,694.4622,688.48785,694.578,688.02655C694.7094,687.50287,694.4668,686.7749,693.88043,685.91504C693.3495,685.1362,692.8139,683.748,692.706,682.86224C692.6669,682.5414,692.72845,681.7382,692.84827,681.0826C692.97034,680.41516,693.0442,679.5572,692.9992,679.1715C692.9498,678.74786,692.97595,678.40515,693.0682,678.3148C693.1606,678.2243,693.2022,678.08563,693.15704,678.0029C693.11554,677.9269,693.1623,677.84564,693.2777,677.83044C693.39294,677.8153,693.4761,677.7522,693.4693,677.70087C693.4608,677.6367,693.8712,677.0182,694.3939,676.313C694.91095,675.6155,695.32855,675.00214,695.3235,674.96387C695.31836,674.9253,695.6029,674.52136,695.9503,674.0852C696.7766,673.04816,697.4888,671.86816,698.1549,670.4538C698.4452,669.83734,698.8846,669.14795,699.1252,668.91675C699.4514,668.60333,699.6615,668.1965,699.9215,667.35046C700.1171,666.71436,700.43835,665.93854,700.64465,665.62415C700.8507,665.31,701.15234,664.6988,701.3129,664.2706C701.82684,662.9006,702.5449,659.5158,702.64954,657.92456C702.6876,657.34515,702.78516,656.6684,702.8436,656.43805C702.905,656.19617,702.97046,655.1811,702.98706,654.1756C703.00366,653.16815,703.04083,652.25037,703.0568,652.1449C703.10345,651.8375,703.0291,649.4875,702.931,648.24854C702.6233,644.36365,702.6136,644.18256,702.79346,643.5719C702.9014,643.20544,702.954,642.5204,702.9185,641.8598L702.85266,640.7729L703.3885,640.58466C704.1994,640.30743,704.3221,639.95197,703.96045,638.8001L703.66797,637.874L703.9848,637.1145C704.1516,636.7013,704.5496,635.9813,704.86743,635.51044C706.52216,633.0591,707.5201,630.9576,708.1906,628.50964C708.30225,628.10205,708.4766,627.5198,708.56744,627.2206C708.885,626.1743,709.24915,624.5746,709.30786,623.95337C709.39026,623.0823,709.0898,621.04803,708.73047,620.0912C708.40405,619.222,707.71216,616.4966,707.31604,614.5403C706.99457,612.95294,706.1895,610.5546,705.5068,609.1592C704.88324,607.88477,703.351,605.61273,702.2747,604.35803C700.9906,602.86115,699.0996,601.1506,698.34625,600.79675C697.77814,600.52997,695.97736,599.2329,695.9518,599.0666C695.7887,598.0059,694.932,595.61755,694.6677,595.48096C694.61017,595.4512,694.23755,594.962,693.83545,594.4175C692.7533,592.952,692.30505,592.53986,691.48376,592.53986C691.3322,592.53986,691.16724,592.55426,690.9831,592.5786C690.9341,592.5851,690.88074,592.58813,690.8259,592.58813C690.63574,592.58813,690.4259,592.5499,690.30566,592.48566C690.0115,592.3283,688.2357,592.12256,687.1388,592.1104C686.3288,592.10156,685.8933,591.9468,685.1305,591.42444C684.32983,590.8762,683.6741,590.07886,683.60455,589.5534C683.5745,589.3267,683.49994,589.14386,683.44855,589.14386C683.44775,589.14386,683.4468,589.14386,683.4461,589.14417C683.4454,589.14417,683.4449,589.14417,683.44415,589.14417C683.3893,589.14417,683.1416,588.8414,682.8986,588.46C682.0409,587.11346,680.70105,586.24725,679.4194,586.2214C679.3961,586.2209,679.3737,586.22046,679.3519,586.22046C678.987,586.22046,678.7586,586.3148,678.24286,586.6908C677.7236,587.0694,677.38556,587.26465,676.92773,587.26465C676.4207,587.26465,675.7668,587.025,674.5563,586.52734C673.9813,586.29095,673.52826,586.1742,673.14886,586.1742L673.14886,586.1754 Z"/>
</g>
<g style="fill:rgb(31,22,22); fill-opacity:1.0; stroke-linejoin: miter">
<path d="M833.2958,706.7246L833.2958,706.7246C833.2958,856.841,711.60223,978.53406,561.48584,978.53406L561.48584,978.53406C411.36942,978.53406,289.67593,856.841,289.67593,706.7246L289.67593,706.7246C289.67593,556.6082,411.36942,434.91516,561.48584,434.91516L561.48584,434.91516C711.60223,434.91516,833.2958,556.6082,833.2958,706.7246L833.2958,706.7246 M787.5558,706.7246L787.5558,706.7246C787.5558,581.8698,686.3408,480.65515,561.48584,480.65515L561.48584,480.65515C436.6309,480.65515,335.41592,581.8698,335.41592,706.7246L335.41592,706.7246C335.41592,831.5794,436.6309,932.79407,561.48584,932.79407L561.48584,932.79407C686.3408,932.79407,787.5558,831.5794,787.5558,706.7246 Z"/>
</g>
<g style="fill:rgb(31,22,22); fill-opacity:1.0; stroke-linejoin: miter">
<path d="M529.3169,970.3463Q527.92596,966.39575,517.8933,962.0132Q516.73914,961.489,514.302,960.68005Q506.1881,958.5326,500.25995,956.255Q495.95453,955.05444,490.96906,954.29504Q479.2033,952.8573,468.40137,954.2627Q461.2359,954.93335,456.0832,959.0659Q452.71008,963.6494,455.67047,972.33887Q458.88763,982.2363,464.4909,984.8888Q471.89478,989.33044,516.0432,987.12463 Z"/>
</g>
<g style="fill:rgb(31,22,22); fill-opacity:1.0; stroke-linejoin: miter">
<path d="M350.47156,857.0924Q357.6129,860.51025,377.79523,899.97046Q391.50708,930.1106,390.1504,942.8357Q390.1504,947.1854,388.49432,950.2927L372.82727,971.74475Q366.26917,977.0321,359.96515,984.38684Q357.32745,986.6294,354.00354,988.67834Q349.55096,992.13074,344.77917,988.1261Q337.00702,977.1675,337.4414,976.57666Q334.32397,968.7744,327.33264,948.4619Q323.62024,940.3435,320.07507,911.2606Q318.77197,878.38086,321.65375,857.442Q321.39398,853.0425,328.8145,831.9248 Z"/>
</g>
<g style="fill:rgb(31,22,22); fill-opacity:1.0; stroke-linejoin: miter">
<path d="M341.15515,804.90564Q342.64514,807.58594,343.28363,809.34314Q347.36127,821.5748,348.49847,823.75604L361.80566,850.19165Q365.03772,856.80237,367.24512,869.25085Q368.8485,875.56055,365.347,884.1323Q362.34692,890.6708,356.87848,888.29846Q353.81787,889.66125,347.07556,873.77124Q345.82208,870.68677,344.99432,867.681L336.16888,837.29724Q332.12744,822.17834,332.44208,820.20624Q332.1834,814.0688,334.54156,802.8516 Z"/>
</g>
<g style="fill:rgb(0,0,0); fill-opacity:1.0; stroke-linejoin: miter">
<path d="M802.2738,736.86475L802.2738,736.86475C802.2738,855.81274,696.44305,950.26447,568.4506,950.26447L568.4506,950.26447C440.45813,950.26447,334.62747,855.81274,334.62747,736.86475L334.62747,736.86475C334.62747,617.91675,440.45813,523.465,568.4506,523.465L568.4506,523.465C696.44305,523.465,802.2738,617.91675,802.2738,736.86475L802.2738,736.86475 M777.71533,736.86475L777.71533,736.86475C777.71533,633.6611,685.1688,548.0235,568.4506,548.0235L568.4506,548.0235C451.73242,548.0235,359.18588,633.6611,359.18588,736.86475L359.18588,736.86475C359.18588,840.0684,451.73242,925.706,568.4506,925.706L568.4506,925.706C685.1688,925.706,777.71533,840.0684,777.71533,736.86475 Z"/>
</g>
<g style="fill:rgb(31,22,22); fill-opacity:1.0; stroke-linejoin: miter">
<path d="M327.05173,822.1738Q339.9084,848.15686,340.2411,852.24426Q342.1189,861.85095,341.87524,866.9453Q341.40137,872.19226,338.45282,875.8074Q334.6397,879.64,328.29526,879.57544Q322.94693,879.6924,319.96265,875.547Q314.4669,869.1874,313.28357,864.61523Q310.4931,854.6382,309.1565,842.96375Q307.9479,828.65027,311.47385,818.35394Q314.16022,810.60583,324.87222,798.09937 Z"/>
</g>
<g style="fill:rgb(31,22,22); fill-opacity:1.0; stroke-linejoin: miter">
<path d="M783.2278,853.6212Q781.0398,850.9368,683.43555,937.72986Q649.4908,974.789,651.40094,981.3193Q651.95013,987.1706,679.0119,990.4736Q699.7861,992.6536,715.90265,986.7827Q741.2026,977.7196,791.9562,931.2258 Z"/>
</g>
</g>
</svg>