<?xml version="1.0" encoding="utf-8"?>
<svg xmlns="http://www.w3.org/2000/svg" xmlns:xlink="http://www.w3.org/1999/xlink" version= "1.1" width="720px" height="1424px" viewBox="0 0 720 1424">
<g id="layer1">
<g>
<g style="fill:rgb(255,255,255); fill-opacity:1.0; stroke-linejoin: miter">
<path d="M634.95154,302.14615C562.24805,302.14612,499.2414,315.02017,437.66278,342.2587L437.66132,342.25922C330.47998,389.82718,245.42404,474.6699,197.58412,581.7583L197.58412,581.76227C150.26964,687.6138,144.69412,813.8405,182.49152,923.45404C212.54915,1010.8445,267.4913,1087.4462,340.44748,1143.7653L340.44748,1143.7689C409.57224,1197.2239,490.41095,1229.4807,579.21533,1238.9497L579.2145,1238.9539C595.5941,1240.7085,611.9601,1241.573,628.2538,1241.5732C771.7179,1241.573,909.4429,1174.4639,998.9623,1058.5776L998.9623,1058.582C1047.547,995.7344,1078.4701,923.5545,1091.7559,841.5862L1091.7566,841.58154C1094.8374,822.17957,1097.4474,763.0807,1096.0891,743.4829L1096.0887,743.4783C1091.9617,686.2593,1080.4536,638.193,1059.1934,588.43616L1059.193,588.43463C1036.495,535.45544,1012.00354,497.58548,973.1538,455.14514C936.27,414.85233,901.18445,387.13977,854.47327,361.1465C798.01086,329.6457,741.8706,312.1074,675.3231,304.8893L675.3137,304.88895C661.51587,303.49176,647.12866,302.2189,643.07825,302.19882L643.0748,302.20273C640.343,302.1635,637.656,302.14615,634.95154,302.14615 Z"/>
</g>
<g style="fill:rgb(0,0,0); fill-opacity:1.0; stroke-linejoin: miter">
<path d="M595.1011,409.10687L609.369,409.1085L609.369,357.42978L597.6565,357.4312C594.6041,363.74692,589.848,367.93564,580.26514,371.05856L580.26514,382.6294C583.4596,381.6355,586.157,380.57062,588.3574,379.50607C590.55786,378.44153,592.75854,377.0218,595.1008,375.24677L595.1011,409.10687 Z"/>
</g>
<g style="fill:rgb(0,0,0); fill-opacity:1.0; stroke-linejoin: miter">
<path d="M623.7103,409.10727L666.088,409.10846L666.088,397.60803L644.08264,397.60904C645.3606,396.32986,646.4961,395.33636,647.41907,394.55478C648.3419,393.77463,650.2584,392.35486,653.098,390.3669C657.9248,387.03027,661.26086,383.90756,663.03564,381.13858C664.8102,378.29913,665.7328,375.31815,665.7328,372.19467C665.7328,369.2842,664.9519,366.72894,663.31934,364.38666C660.19617,359.63025,655.22705,357.4298,645.2893,357.42978C631.0216,357.785,626.8335,362.0435,624.775,373.61456L638.90076,374.82144C639.75256,369.07132,642.02405,367.08426,645.64453,367.08426C649.12244,367.08426,651.6781,369.639,651.6782,372.69174C651.6782,374.18246,651.1102,375.67316,649.90344,377.30566C648.7677,378.8677,646.14124,381.2102,642.02405,384.26248C635.2809,389.3024,630.6666,393.63187,628.1825,397.32376C625.698,401.01492,624.2073,404.9189,623.7103,409.10727 Z"/>
</g>
<g style="fill:rgb(0,0,0); fill-opacity:1.0; stroke-linejoin: miter">
<path d="M830.7064,460.31992L844.97437,460.32144L844.97437,408.6434L833.2621,408.6448C830.2097,414.9612,825.45374,419.14905,815.8707,422.2725L815.8707,433.843C819.0654,432.8495,821.7627,431.7846,823.96326,430.71982C826.1637,429.65457,828.36414,428.2354,830.7064,426.4609L830.7064,460.31992 Z"/>
</g>
<g style="fill:rgb(0,0,0); fill-opacity:1.0; stroke-linejoin: miter">
<path d="M947.26074,613.9639L989.6388,613.9662L989.6388,602.46484L967.6338,602.46625C968.91125,601.1864,970.04724,600.19305,970.9697,599.41266C971.8928,598.6317,973.8093,597.21185,976.6487,595.2242C981.4756,591.8877,984.81177,588.76483,986.5864,585.99603C988.3612,583.1575,989.2838,580.17523,989.2837,577.0523C989.2837,574.1414,988.5028,571.58594,986.87036,569.2442C983.74695,564.488,978.7781,562.2872,968.8402,562.2872C954.57214,562.6423,950.3839,566.901,948.32556,578.47217L962.45166,579.6785C963.3031,573.9288,965.5747,571.9414,969.1948,571.9414C972.67334,571.9414,975.22876,574.4965,975.22876,577.5489C975.2289,579.0398,974.66077,580.5306,973.4541,582.1633C972.3187,583.72504,969.69214,586.0678,965.5747,589.11957C958.8314,594.1595,954.2174,598.4896,951.73303,602.1805C949.2483,605.872,947.7577,609.77606,947.26074,613.9639 Z"/>
</g>
<g style="fill:rgb(0,0,0); fill-opacity:1.0; stroke-linejoin: miter">
<path d="M1009.5753,769.89C1010.3563,764.8509,1012.41455,763.1468,1015.75134,763.1468C1018.9457,763.1468,1020.933,765.1349,1020.933,768.1866C1020.933,771.3808,1018.16455,774.1496,1014.4735,774.1496C1013.9763,774.1496,1013.40845,774.07825,1012.62744,774.0069L1011.91785,784.0874C1013.8347,783.51904,1015.39624,783.23505,1016.46094,783.23505C1020.6489,783.23505,1023.20447,785.93274,1023.20447,790.6887C1023.20447,795.3018,1020.365,798.2834,1016.603,798.2834C1012.9828,798.2834,1010.71106,796.4393,1009.5753,790.7601L995.4497,792.60614C998.7147,802.0458,1003.18665,806.73145,1016.958,806.8021C1021.714,806.8021,1025.4758,806.09314,1028.3866,804.67303C1034.2781,801.7622,1037.4015,795.8,1037.4015,789.9077C1037.4015,785.15173,1035.485,781.7453,1032.0775,779.6858C1031.0127,779.0475,1029.522,778.4791,1027.6055,777.9827C1032.4325,775.35565,1034.846,771.7358,1034.846,767.40564C1034.846,763.6442,1033.3555,760.51996,1030.3735,758.0366C1027.4636,755.5522,1022.6366,754.34436,1016.0349,754.34436C1004.4645,754.34436,998.43066,759.02997,996.2301,767.54767L1009.5753,769.89 Z"/>
</g>
<g style="fill:rgb(0,0,0); fill-opacity:1.0; stroke-linejoin: miter">
<path d="M961.62305,1009.05896L973.9037,1009.0608L973.9037,999.5469L980.29224,999.54785L980.2921,988.6151L973.90344,988.6162L973.90356,957.3815L961.62305,957.3831L935.9265,987.9758L935.92664,999.5458L961.62305,999.54785L961.62305,1009.05896 M961.6229,988.6151L947.9938,988.6161L961.62305,972.6442L961.6229,988.6151 Z"/>
</g>
<g style="fill:rgb(0,0,0); fill-opacity:1.0; stroke-linejoin: miter">
<path d="M811.4016,1102.7332L806.92993,1130.0618L818.9263,1131.7666C820.06226,1130.5593,821.1266,1129.6362,822.04944,1129.1399C823.3273,1128.5007,824.6763,1128.1462,826.02466,1128.1462C830.28357,1128.1462,833.1234,1130.9143,833.1234,1136.9487C833.1234,1142.8403,830.28357,1145.821,826.3086,1145.821C822.83044,1145.821,819.99097,1143.4077,819.3519,1138.793L805.0842,1140.355C806.433,1145.1826,808.3495,1148.0938,811.6858,1150.6484C815.093,1153.1335,819.70715,1154.3396,826.4507,1154.3396C831.13586,1154.3396,834.96924,1153.5586,837.9503,1151.9963C843.91296,1148.874,847.31995,1142.2012,847.31995,1135.6707C847.31995,1130.9851,845.75867,1127.0823,842.56433,1124.0288C839.3699,1120.9756,835.2529,1119.4153,830.2129,1119.4153C827.1605,1119.4153,824.1085,1120.1956,820.98474,1121.6155L822.1913,1114.0203L844.90686,1114.021L844.90674,1102.7334L811.4016,1102.7349 Z"/>
</g>
<g style="fill:rgb(0,0,0); fill-opacity:1.0; stroke-linejoin: miter">
<path d="M643.0537,1170.8655C640.21436,1162.845,635.9553,1158.6565,624.10095,1158.5862C610.4009,1158.5859,602.2377,1166.7485,602.2377,1185.1335C602.2377,1191.3801,603.1604,1196.4199,605.006,1200.2534C608.69714,1207.8486,614.44714,1211.0427,624.5978,1211.043C637.02026,1211.3984,643.9768,1203.8027,644.11865,1193.5103C644.11865,1188.5408,642.5569,1184.4241,639.4335,1181.23C636.31006,1177.9648,632.4772,1176.332,627.93396,1176.332C623.178,1176.332,619.91284,1177.9648,616.5764,1181.3716C617.0023,1175.906,617.64124,1172.3569,618.5642,1170.7244C619.8418,1168.3813,621.61633,1167.2456,623.959,1167.2456C626.5144,1167.2456,628.218,1168.665,628.9989,1172.6409L643.0537,1170.8655 M617.0023,1193.5098C617.0023,1188.1147,620.0547,1185.1338,623.959,1185.1338C627.86316,1185.1338,630.7025,1188.1865,630.7025,1193.935C630.70264,1199.544,627.9341,1202.312,624.2429,1202.312C620.19666,1202.312,617.00244,1198.9758,617.0023,1193.5098 Z"/>
</g>
<g style="fill:rgb(0,0,0); fill-opacity:1.0; stroke-linejoin: miter">
<path d="M402.89706,1153.5635L416.95206,1153.5642C417.44907,1147.6013,418.30084,1142.4187,419.6494,1138.0884C421.35336,1132.4814,423.69595,1127.3704,426.60617,1122.7561C428.94885,1118.9934,431.93002,1115.5156,435.55038,1112.2505L435.55032,1102.7373L394.30804,1102.7402L394.3081,1114.6643L419.43665,1114.665C414.25473,1121.052,410.49255,1127.0862,408.07916,1132.6943C405.73654,1138.3018,403.96198,1145.258,402.89706,1153.5635 Z"/>
</g>
<g style="fill:rgb(0,0,0); fill-opacity:1.0; stroke-linejoin: miter">
<path d="M267.26196,981.728C261.5123,984.00073,258.74365,988.18823,258.74365,994.15076C258.74365,997.2041,259.4536,999.9004,260.94415,1002.3856C263.99667,1007.28284,269.03665,1009.8386,279.7554,1009.8386C285.50485,1009.8386,290.82883,1008.77466,294.2361,1006.4315C297.6434,1003.9469,300.26968,999.26245,300.26968,994.22156C300.2698,988.8977,297.57242,984.355,292.1065,981.7278C294.16507,980.38025,295.72675,978.9608,296.64963,977.47003C297.9983,975.482,298.63715,973.3522,298.63715,971.00977C298.63715,967.1055,297.00446,963.84,293.73917,961.2843C290.47394,958.6582,285.43393,957.38086,278.69058,957.38086C273.50867,957.381,269.39142,958.4461,266.26825,960.50446C262.29318,963.20197,260.3054,966.6808,260.3054,970.9386C260.3054,973.5657,261.01517,975.83746,262.3639,977.8253C263.42868,979.2446,265.06128,980.5221,267.26196,981.728 M273.5797,971.7909C273.5797,968.3125,275.92212,965.96985,279.40018,965.96985C282.73657,965.96985,285.1501,968.3122,285.1501,971.93286C285.1501,975.2686,282.8076,977.6111,279.6132,977.6111C275.92212,977.6111,273.5797,975.26874,273.5797,971.7909 M272.7989,993.6538C272.7989,988.89795,275.77994,985.917,279.40018,985.917C282.8787,985.917,286.0728,989.1107,286.07288,993.58325C286.07288,998.0547,282.9497,1001.2495,279.54236,1001.2495C276.06406,1001.2495,272.7989,998.126,272.7989,993.6538 Z"/>
</g>
<g style="fill:rgb(0,0,0); fill-opacity:1.0; stroke-linejoin: miter">
<path d="M208.16724,794.5945C208.94821,797.29193,210.15474,799.5638,211.71649,801.40875C214.83972,805.02966,218.95671,806.804,227.12006,806.8039C240.74918,806.8039,248.98343,798.7112,248.98346,780.32605C248.98346,774.0801,248.06085,769.04016,246.21506,765.2778C242.52377,757.68335,236.77414,754.34564,226.62335,754.34564C214.12985,753.99133,207.3154,761.6572,207.10242,772.0217C207.10242,776.92,208.66406,781.03674,211.78746,784.3018C214.91081,787.49615,218.74399,789.1286,223.28693,789.12836C228.04297,789.12836,231.3082,787.56635,234.64453,784.08856C234.21863,789.5552,233.5087,793.1036,232.5859,794.80774C231.3082,797.0795,229.5336,798.21484,227.262,798.21484C224.70654,798.21484,222.86118,796.7954,222.22214,792.8196L208.16724,794.5945 M234.1478,771.9504C234.14752,777.34564,231.16629,780.39777,227.1912,780.39777C223.42886,780.39777,220.51854,777.2743,220.51854,771.5949C220.51854,765.98755,223.28693,763.148,226.97818,763.148C230.95328,763.148,234.1478,766.4849,234.1478,771.9504 Z"/>
</g>
<g style="fill:rgb(0,0,0); fill-opacity:1.0; stroke-linejoin: miter">
<path d="M232.59116,613.9632L246.85904,613.965L246.85904,562.2866L235.14642,562.2878C232.09445,568.6039,227.33829,572.79175,217.75537,575.9152L217.75534,587.4859C220.94969,586.492,223.64713,585.42725,225.84763,584.36224C228.04813,583.2979,230.24866,581.8781,232.59122,580.10297L232.59116,613.9632 Z"/>
</g>
<g style="fill:rgb(0,0,0); fill-opacity:1.0; stroke-linejoin: miter">
<path d="M258.901,588.3455C258.9009,596.2242,260.32062,603.0396,262.8052,606.8014C266.14142,612.1253,271.11044,614.752,279.62875,614.752C287.2238,614.752,292.61874,612.6223,295.74216,608.43445C298.86545,604.17456,300.427,597.43097,300.427,588.2032C300.427,584.0863,299.93027,580.1109,299.00732,576.3482C298.08453,572.3738,296.59387,569.53424,293.75424,566.90814C290.98615,564.13934,286.86884,562.2939,279.98337,562.2939C272.885,562.2941,267.56116,564.21045,264.08298,568.1147C260.60486,571.9478,258.901,578.69147,258.901,588.3455 M272.885,588.4162C272.885,581.957,273.38202,577.55615,274.4468,575.213C275.5113,572.87,277.2151,571.6637,279.5573,571.6637C281.82898,571.6637,283.5327,572.799,284.6686,575.14215C285.80405,577.4847,286.37222,582.02795,286.37222,588.77094C286.37222,593.3851,286.08798,596.722,285.59122,598.9228C284.66867,603.25226,282.468,605.16895,279.62875,605.16895C277.4282,605.16895,275.79553,603.96234,274.58875,601.6198C273.4529,599.2767,272.885,594.8762,272.885,588.4162 Z"/>
</g>
<g style="fill:rgb(0,0,0); fill-opacity:1.0; stroke-linejoin: miter">
<path d="M373.43866,460.31964L387.70648,460.32065L387.70657,408.64288L375.99417,408.6443C372.94156,414.96033,368.18582,419.14816,358.60287,422.27206L358.60294,433.84232C361.79727,432.8483,364.49463,431.7837,366.695,430.71933C368.89548,429.65433,371.09604,428.2345,373.43866,426.46L373.43866,460.31964 Z"/>
</g>
<g style="fill:rgb(0,0,0); fill-opacity:1.0; stroke-linejoin: miter">
<path d="M417.47455,460.31952L431.74237,460.32117L431.74243,408.6431L420.02994,408.6443C416.9778,414.96033,412.22174,419.14856,402.63864,422.27203L402.63864,433.8424C405.83298,432.8489,408.53015,431.78418,410.73102,430.7193C412.93158,429.6542,415.13196,428.23502,417.47455,426.4604L417.47455,460.31952 Z"/>
</g>
<g style="fill:rgb(0,0,0); fill-opacity:1.0; stroke-linejoin: miter">
<path d="M604.33093,285.66257C508.15048,291.05573,417.76172,322.78458,341.01947,378.3508C318.97763,394.28955,277.96933,431.67685,260.3071,452.2355C203.35257,517.84314,166.47421,594.1374,148.65524,682.6549C145.00742,700.8285,143.93045,710.89685,142.18144,750.49255C140.4324,790.0882,140.61746,800.2123,142.64891,818.6368C152.58734,908.53766,182.60222,987.629,233.84491,1058.4908C249.64001,1080.2113,287.1784,1121.3839,307.43433,1138.7172C374.72226,1197.0107,451.03076,1233.5735,542.7095,1251.3745C570.60144,1256.873,644.6079,1259.6685,673.8362,1256.3762C763.8948,1246.4443,842.02576,1216.7039,913.5249,1165.3313C934.9149,1149.8384,975.9303,1112.293,993.74304,1091.8997C1050.8691,1025.981,1087.7408,949.845,1105.5662,861.171C1109.2141,842.996,1110.2905,832.92804,1112.0398,793.33215C1113.7885,753.73663,1113.6034,743.6124,1111.572,725.1879C1099.2682,613.6866,1056.3413,519.1673,982.0858,439.7024C910.8457,363.53195,821.3496,314.21506,717.1483,293.64865C693.9612,288.98935,627.6251,284.32074,604.33093,285.66257 Z M675.18335,306.17807C741.5663,313.3782,797.5377,330.8665,853.8418,362.27798C900.43054,388.20288,935.4064,415.82794,972.19763,456.02002C1010.949,498.35306,1035.3616,536.1012,1058.0015,588.9448C1079.2024,638.5637,1090.6786,686.4893,1094.7958,743.5724C1096.1475,763.0729,1093.542,822.0724,1090.4762,841.3788C1077.2238,923.14264,1046.3837,995.1199,997.93713,1057.7854C898.5231,1186.4792,739.4984,1254.8496,579.3529,1237.6609C490.7823,1228.2166,410.1703,1196.0471,341.23975,1142.7389C268.48413,1086.5746,213.69229,1010.18274,183.71693,923.03156C146.02693,813.729,151.58722,687.8428,198.76761,582.2866C246.47702,475.49106,331.29858,390.88184,438.1873,343.44427C501.86456,315.27737,567.07495,302.50934,643.058,303.49506C647.00854,303.51154,661.33594,304.7766,675.18335,306.17807 Z"/>
</g>
<g style="fill:rgb(0,0,0); fill-opacity:1.0; stroke-linejoin: miter">
<path d="M603.71875,272.58228C504.95203,278.12054,412.13242,310.70215,333.32632,367.76306C310.6918,384.13016,268.58072,422.5228,250.44351,443.63412C191.95746,511.0063,154.08723,589.3525,135.78932,680.2499C132.04323,698.91205,130.93742,709.2512,129.14128,749.91205C127.34523,790.57227,127.53526,800.96875,129.62138,819.8885C139.82697,912.20715,170.64912,993.42554,223.2698,1066.1932C239.48962,1088.497,278.0376,1130.7767,298.83817,1148.5765C367.93564,1208.4382,446.29623,1245.9836,540.4404,1264.263C569.0824,1269.9097,645.0791,1272.7808,675.0934,1269.3992C767.5737,1259.2007,847.80566,1228.6599,921.2274,1175.9065C943.1925,1159.9956,985.3109,1121.4414,1003.6028,1100.4993C1062.265,1032.8086,1100.1283,954.62537,1118.4331,863.5667C1122.1792,844.9027,1123.2847,834.56396,1125.0807,793.90375C1126.8765,753.24347,1126.6865,742.847,1124.6005,723.92694C1111.9656,609.427,1067.8846,512.3662,991.6322,430.76437C918.4762,352.54562,826.5735,301.90274,719.56995,280.78296C695.7594,275.9983,627.6393,271.20428,603.71875,272.58228 Z M676.47656,293.64935C744.64453,301.04315,802.12085,319.00165,859.93933,351.25815C907.7809,377.8801,943.6974,406.24805,981.4778,447.5207C1021.27136,490.9924,1046.3405,529.7554,1069.5891,584.0203C1091.3602,634.9734,1103.1449,684.18787,1107.3729,742.80585C1108.7609,762.8303,1106.0853,823.4167,1102.9373,843.2424C1089.3286,927.2044,1057.6589,1001.1177,1007.9094,1065.468C905.82227,1197.623,742.52124,1267.8315,578.0696,1250.1809C487.11682,1240.4824,404.33694,1207.4487,333.5529,1152.7064C258.84048,1095.0316,202.57532,1016.5856,171.7937,927.0911C133.0901,814.8491,138.80003,685.5774,187.24907,577.1826C236.24149,467.5151,323.34424,380.63107,433.1072,331.9176C498.49713,302.99353,565.46094,289.88214,643.4873,290.89432C647.5442,290.91135,662.2565,292.2102,676.47656,293.64935 Z"/>
</g>
</g>
<g style="fill:rgb(255,255,255); fill-opacity:1.0; stroke-linejoin: miter">
<path d="M629.39966,499.14066Q519.3716,500.6566,440.56607,576.7774Q363.1353,655.72046,361.2873,766.10944Q362.4442,876.5314,439.10718,955.88495Q518.86084,1033.5364,628.46387,1034.9792Q738.4983,1033.6912,817.48083,957.702Q895.0748,878.88385,897.1199,768.4931Q896.1554,658.0745,819.6616,578.5974Q740.0753,500.81155,630.49023,499.14273L629.39966,499.14066 Z"/>
</g>
<g style="fill:rgb(0,0,0); fill-opacity:1.0; stroke-linejoin: miter">
<path d="M725.0786,614.7573C724.89014,614.7573,724.7013,614.7581,724.51196,614.76C724.28577,614.7622,724.05896,614.7655,723.8318,614.77014C723.7079,614.77264,723.58594,614.77496,723.4656,614.7774C720.51404,614.8398,718.5768,614.99756,715.3834,615.42096C714.1388,615.58093,708.05884,616.8083,707.2435,617.0584C707.00354,617.13153,706.18787,617.38165,705.417,617.60156C697.2949,620.0237,689.985,624.3778,684.80884,629.8722C681.9575,632.89215,679.4503,636.5941,677.76086,640.2916C675.54834,645.10724,674.42456,650.452,674.5145,655.777C674.56323,659.13446,675.084,661.14014,676.4143,663.10187L676.8096,663.69116L676.3623,664.78186C675.61975,666.5827,674.4988,668.9472,672.34216,673.26953C668.8828,680.2005,667.74976,682.7422,667.0952,685.0866C666.57385,686.9616,666.5504,688.0725,666.9971,688.8962C667.5471,689.9125,668.56396,690.4888,670.9431,691.1148C671.8854,691.3608,672.3219,691.4499,672.7699,691.4499C672.7804,691.4499,672.7909,691.4499,672.8015,691.44965C672.8153,691.44965,672.8292,691.4494,672.843,691.44904C672.93945,691.44696,673.0376,691.4412,673.14246,691.4319C673.53723,691.4014,673.8898,691.38214,674.2057,691.37537C674.25305,691.37445,674.2997,691.3737,674.34546,691.37335C674.37964,691.3729,674.41345,691.3728,674.44666,691.3728C675.6019,691.3727,676.2258,691.56537,676.6467,692.00665C677.03064,692.40405,677.10925,692.9499,676.9933,694.2447C676.93384,694.8619,676.8937,695.567,676.9176,695.8177C676.94604,696.4155,676.8086,696.9576,676.35205,697.9586C675.7915,699.1869,675.7013,699.6164,675.84985,700.2491C676.07263,701.1733,676.6904,701.7037,678.5265,702.56104C678.9238,702.7402,679.28906,702.9575,679.3351,703.02924C679.4884,703.26184,679.2882,703.79736,678.6415,704.91156C678.027,705.98804,677.8629,706.454,677.9613,706.9031C678.0425,707.27435,678.19824,707.4246,679.5941,708.4708C681.249,709.71606,681.9408,710.5377,682.2483,711.6168C682.452,712.36084,682.45496,712.4216,682.15234,715.20123C681.7106,719.2191,681.7793,720.7502,682.4629,722.09546C683.30676,723.7536,685.7444,725.53467,687.99805,726.14716C689.03076,726.42255,689.7317,726.5357,690.9192,726.58276L691.84985,726.62506L700.31226,724.8246L708.7633,723.0162L709.23804,723.36255C709.86255,723.83014,711.0813,725.3758,711.86694,726.7191C712.3628,727.5599,712.8873,728.5595,713.4332,729.70544L713.42004,729.7057Q712.9458,729.95245,712.4844,730.19104L712.4978,730.1909C712.6157,730.3762,712.7344,730.5562,712.85266,730.72974C715.906,735.05365,715.9082,735.1632,713.88696,738.1679C707.7207,747.5137,705.4203,758.09424,705.66846,775.0937C705.93884,787.9243,705.1421,791.7807,701.1887,796.80084C699.4802,799.0312,695.95984,808.97925,693.8302,817.2523C692.00635,824.422,690.7156,836.0778,690.2529,850.5694C690.13745,855.50867,689.6881,860.2355,689.26355,860.90265C688.73145,861.682,688.29395,866.95746,688.08496,872.6665L687.6466,883.0982L677.9895,882.9728C677.43835,882.9656,676.907,882.9619,676.3955,882.96204C676.08154,882.96204,675.775,882.96356,675.47595,882.9664C675.14026,882.96954,674.81396,882.97455,674.4973,882.9811C670.1572,883.0724,667.58264,883.49493,666.7179,884.3069C665.8545,884.98346,662.14197,885.82965,658.4204,886.23706C657.47595,886.3007,656.6373,886.34814,655.86646,886.3646C655.7583,886.3667,655.6516,886.36847,655.546,886.3696C655.46985,886.37024,655.3943,886.37067,655.31934,886.37067C650.6543,886.37103,648.3052,884.9676,638.72314,878.2039C636.6051,876.6029,632.61804,874.82196,629.85803,874.0022C627.10046,873.2923,624.2239,872.14624,623.5542,871.61176C623.11035,871.3086,622.0282,871.161,620.7141,871.161C620.65857,871.161,620.6028,871.16144,620.5465,871.1619C620.4739,871.1624,620.4005,871.1637,620.32666,871.1654C619.4347,871.1839,618.45935,871.2664,617.51624,871.4097C614.89355,871.90344,609.4221,872.5673,605.15247,872.9868C597.92847,873.797,593.6913,875.7515,593.7466,878.38306C593.75806,878.93134,592.37854,881.15466,590.5582,883.27734C588.84534,885.2884,587.36536,887.9526,587.38855,889.0492C587.4536,892.1338,585.77856,893.34174,580.27344,893.4576C580.1157,893.46075,579.95496,893.4633,579.7908,893.46484C579.6466,893.46625,579.4999,893.46704,579.3506,893.46704C578.22205,893.46704,576.9503,893.4291,575.5211,893.358C570.57935,893.1332,562.5603,892.64355,557.6188,892.4185C552.5676,892.1959,547.9458,891.52515,547.27625,890.9908C547.04504,890.801,546.78735,890.7078,546.50574,890.7078L546.494,890.7096C546.48926,890.70795,546.4845,890.70795,546.47974,890.70795C545.8137,890.72217,545.0156,891.2533,544.12134,892.2637C542.9525,893.6357,541.725,894.3506,540.0864,894.38513C540.0637,894.38574,540.0408,894.386,540.0177,894.3862C539.999,894.38654,539.98035,894.38654,539.9617,894.38654C538.0144,894.3868,535.4895,893.44916,531.8187,891.5355C528.67737,889.86945,527.21387,889.1109,526.11475,889.1112C526.1073,889.1112,526.1001,889.1112,526.09265,889.1113C526.0835,889.1113,526.0746,889.1113,526.06555,889.1117C525.17126,889.1305,524.50964,889.6596,523.3518,890.6168C521.65674,892.0071,520.5337,892.65955,519.36426,892.68427C519.35144,892.68463,519.3386,892.68475,519.3258,892.685C519.3157,892.685,519.3054,892.685,519.2953,892.685C518.40283,892.6851,517.4762,892.322,516.2423,891.6445C515.57043,891.2166,514.98413,890.9683,514.34375,890.9683C514.33606,890.9683,514.3285,890.9683,514.3209,890.96844C514.31116,890.96857,514.3014,890.9688,514.2916,890.96893C512.71606,891.0022,510.79312,892.53424,506.4723,896.5675C502.81775,900.15515,502.07782,901.48724,502.15167,904.9964C502.22107,908.2861,503.02325,909.915,505.93213,912.59644L509.6249,916.0295L565.88025,914.84467C572.678,914.7169,578.67725,914.59955,583.97473,914.4879C617.05066,913.7917,622.77625,913.32526,624.73303,911.96014C627.8696,909.8096,627.9397,907.94305,625.0333,905.37115C623.80383,904.30005,622.7892,903.00476,622.7777,902.4566C622.76404,901.8031,623.11365,901.487,623.72156,901.4743C623.72864,901.47406,623.7357,901.47406,623.7428,901.4738C623.74866,901.4738,623.7545,901.4738,623.76025,901.4738C625.0995,901.4737,627.6377,902.8912,630.2993,905.37024C634.9971,909.6596,639.21045,911.7652,645.3699,912.5133C650.3185,913.0671,651.77856,914.6821,650.86804,918.3214C649.46204,924.495,649.6836,924.6,657.3668,924.76697C663.6221,924.8547,664.8374,925.2679,665.3131,927.0131C665.6644,928.30316,666.85913,929.14954,668.0481,929.1494C668.0559,929.1494,668.0637,929.1494,668.07153,929.1491C668.0813,929.1491,668.09106,929.149,668.1008,929.1486C668.12354,929.1484,668.14624,929.14795,668.16895,929.1477C668.1875,929.14746,668.20593,929.14746,668.22437,929.14746C669.4922,929.1472,670.64294,929.55164,670.97266,930.0762C671.76587,931.2662,664.7302,935.8025,662.208,935.8555C661.2208,935.87634,658.4093,937.8006,655.8235,940.0495C646.027,948.9223,642.68274,951.62616,641.80554,951.6447C641.2571,951.6562,639.3158,953.23315,637.3789,955.02905C634.04626,958.2811,633.7196,958.3974,622.20544,958.63983C615.7355,958.7761,608.9457,959.3579,607.09546,960.0551C605.2429,960.6427,596.3972,962.58417,587.3281,964.3113C556.9531,970.2163,548.2219,972.37494,542.0383,975.68677C537.26636,978.3104,535.3386,980.54517,532.4042,987.07983C530.5182,991.2883,530.23755,993.598,530.8054,999.73C531.8043,1010.67993,532.7345,1013.1835,538.1184,1018.7754C538.2638,1018.9263,538.4077,1019.0781,538.5502,1019.2307L538.5548,1019.2324Q577.14014,1033.0825,620.4889,1034.7717L620.4889,1034.7737C620.20886,1033.5366,620.35706,1032.9294,620.93286,1032.9133L620.94495,1032.9131L620.94885,1032.9128L620.9569,1032.9148C621.578,1032.9128,622.6754,1033.5718,624.2488,1034.8445C624.27075,1034.8623,624.2925,1034.8796,624.3142,1034.8972L624.3197,1034.8989Q626.38635,1034.9519,628.46387,1034.9792Q738.4983,1033.6912,817.48083,957.702Q817.7368,957.44196,817.99194,957.18176L817.9995,957.1834C817.15283,953.2315,816.8523,950.347,817.17285,948.9398C817.93005,945.84,822.3989,940.6396,824.14514,940.6028C824.1487,940.6028,824.15247,940.60266,824.1559,940.60266L824.1642,940.60443C824.2742,940.60266,824.37305,940.62415,824.45886,940.6677C825.01624,941.09503,825.4806,942.2919,825.50366,943.3883C825.51697,944.0252,826.46936,945.3356,827.76636,946.74506L827.76636,946.7471Q836.9519,936.4725,844.9219,925.6919L844.9297,925.6937C845.5104,922.05096,846.3452,916.535,846.8119,913.3184C847.291,910.0171,848.16235,904.513,848.6415,901.2116C849.1207,897.91064,849.9828,891.96814,850.44824,888.00854C851.02295,884.047,852.02026,879.3086,852.7511,877.53766C853.0283,876.87573,853.2578,876.4733,853.45483,876.4691L853.45776,876.4709C854.14795,876.4691,854.4413,881.38654,855.03064,897.2373C855.1715,902.0145,855.3782,906.4372,855.61145,910.1512Q860.6105,902.3161,865.0083,894.2298L865.016,894.2316C865.0956,887.98987,865.56055,882.4977,866.4042,879.8835C868.36743,874.1369,868.1771,859.87866,866.2783,858.27295C865.4966,857.6313,863.3994,857.01715,861.5305,856.83716C858.4531,856.57245,858.2295,856.3578,858.36096,852.18646C858.5294,849.7693,859.31445,845.3643,860.3463,842.2706C863.32556,832.6632,861.71533,823.92004,856.7554,822.8181C856.33374,822.71277,855.8368,822.6634,855.2825,822.6634C855.2533,822.6634,855.224,822.66364,855.19446,822.6638C855.1564,822.6642,855.1179,822.6648,855.0791,822.6656C850.8137,822.7554,843.4409,825.5959,840.6365,828.42334C839.1008,829.9306,837.6312,830.8945,836.9353,830.9092L836.9199,830.9108C836.7949,830.9093,836.69617,830.8777,836.6273,830.8119C836.17957,830.3824,835.8884,826.98755,835.9197,823.25684C836.0006,816.6723,831.7074,795.1498,828.8159,788.0796C827.0786,783.72784,821.30115,775.07275,816.6919,769.79395C814.66724,767.4229,812.97156,765.0449,812.95984,764.49664C812.89075,761.2069,796.84436,744.21075,788.9479,739.11115C787.72314,738.2591,786.3843,737.19025,786.0482,736.8679C785.7123,736.5462,783.70374,734.9426,781.4757,733.34406C778.35693,731.1058,777.2234,729.3744,776.6057,726.09595C776.2261,723.69037,774.3976,720.21796,772.71106,718.279C770.84106,716.19586,769.2383,714.1518,768.03735,712.37305L768.0237,712.3736C766.6854,708.9664,766.4364,708.3053,765.77844,706.4753C765.4127,705.4598,764.9999,704.3214,764.85974,703.96313C764.1273,701.97327,762.8712,697.917,762.2141,695.42926C761.3539,692.1058,761.3568,689.87286,762.22864,686.41595C762.82837,684.0114,763.34973,682.55634,765.1782,678.09125C767.79114,671.7352,768.09924,670.66425,768.6627,666.22015C769.6078,658.79474,769.24536,651.8504,767.5968,645.39197C765.7838,638.3241,762.3496,632.0821,757.5867,627.20654C749.6669,619.10004,738.32434,614.75604,725.0786,614.7573 Z M599.4607,887.6116C600.17395,887.61145,600.5488,888.8124,600.59875,891.18475C600.6544,893.833,599.4232,895.4432,597.5161,895.48334C597.5028,895.4836,597.48926,895.4837,597.4758,895.4838C597.4651,895.48413,597.45435,895.48413,597.44336,895.48413C596.9221,895.48413,596.3519,895.36865,595.74475,895.12695C594.41956,894.71576,594.51294,893.94574,596.532,890.8315C597.808,888.69037,598.7759,887.6258,599.44727,887.6116 Z M609.2665,893.0873C610.3534,893.0873,611.74634,893.5995,612.51355,894.33484C614.4169,896.16,614.26904,899.56415,612.29553,899.6057L612.2866,899.60583L612.27954,899.6075C611.4004,899.60583,609.954,898.10803,608.9363,896.38477C607.2267,893.349,607.33167,893.1273,609.1958,893.088C609.2086,893.08765,609.22156,893.0875,609.2346,893.0875C609.2451,893.0873,609.25574,893.0873,609.2665,893.0873 Z"/>
</g>
<g style="fill:rgb(0,0,0); fill-opacity:1.0; stroke-linejoin: miter">
<path d="M453.02948,691.07513L421.79834,691.1425L421.79407,691.14166L422.8869,866.5458L433.91397,866.4211L433.89017,884.70074L405.94342,884.66077L405.84375,884.6604L405.8364,914.78503L405.83972,914.7868Q415.4306,929.1733,427.08533,942.7122L427.08533,942.714C436.5874,942.6917,445.69382,942.68005,453.7671,942.6793C471.72107,942.6775,484.5658,942.73004,485.29114,942.8591L485.29126,942.8609C485.74884,942.8591,486.21722,964.25244,486.52722,993.66406L486.5313,993.6658Q486.5313,993.66406,486.5313,993.66406L486.52722,993.6658C486.52966,993.8977,486.53223,994.1315,486.5346,994.36584L486.56683,994.3657Q490.94727,996.8047,495.39423,999.0691L495.3943,999.0709Q495.4088,999.07764,495.42334,999.0862L495.4276,999.0879Q501.07874,1001.9629,506.83704,1004.5582L506.83777,1004.5581C506.87592,968.24915,507.29083,943.297,507.8029,942.88403C508.15128,942.6728,520.1096,942.459,538.0698,942.2902C549.4957,942.1827,563.3508,942.09357,578.19116,942.0352C589.0105,941.9928,599.28784,941.92413,608.4663,941.8378C631.666,941.6197,647.8447,941.28595,648.0066,940.95746C648.3474,940.38525,650.8562,939.0041,653.4791,937.73755C658.95447,935.31494,659.86304,933.82654,659.8379,927.5414C659.8246,924.11444,659.0182,922.5161,655.4623,919.1029L651.1029,914.89185L470.99786,915.60394L471.03873,884.75354L442.7438,884.7135L442.77106,866.321L454.11063,866.19257L453.02948,691.07513 Z"/>
</g>
<g style="fill:rgb(0,0,0); fill-opacity:1.0; stroke-linejoin: miter">
<path d="M604.33093,285.66257C508.15048,291.05573,417.76172,322.78458,341.01947,378.3508C318.97763,394.28955,277.96933,431.67685,260.3071,452.2355C203.35257,517.84314,166.47421,594.1374,148.65524,682.6549C145.00742,700.8285,143.93045,710.89685,142.18144,750.49255C140.4324,790.0882,140.61746,800.2123,142.64891,818.6368C152.58734,908.53766,182.60222,987.629,233.84491,1058.4908C249.64001,1080.2113,287.1784,1121.3839,307.43433,1138.7172C374.72226,1197.0107,451.03076,1233.5735,542.7095,1251.3745C570.60144,1256.873,644.6079,1259.6685,673.8362,1256.3762C763.8948,1246.4443,842.02576,1216.7039,913.5249,1165.3313C934.9149,1149.8384,975.9303,1112.293,993.74304,1091.8997C1050.8691,1025.981,1087.7408,949.845,1105.5662,861.171C1109.2141,842.996,1110.2905,832.92804,1112.0398,793.33215C1113.7885,753.73663,1113.6034,743.6124,1111.572,725.1879C1099.2682,613.6866,1056.3413,519.1673,982.0858,439.7024C910.8457,363.53195,821.3496,314.21506,717.1483,293.64865C693.9612,288.98935,627.6251,284.32074,604.33093,285.66257 Z M675.18335,306.17807C741.5663,313.3782,797.5377,330.8665,853.8418,362.27798C900.43054,388.20288,935.4064,415.82794,972.19763,456.02002C1010.949,498.35306,1035.3616,536.1012,1058.0015,588.9448C1079.2024,638.5637,1090.6786,686.4893,1094.7958,743.5724C1096.1475,763.0729,1093.542,822.0724,1090.4762,841.3788C1077.2238,923.14264,1046.3837,995.1199,997.93713,1057.7854C898.5231,1186.4792,739.4984,1254.8496,579.3529,1237.6609C490.7823,1228.2166,410.1703,1196.0471,341.23975,1142.7389C268.48413,1086.5746,213.69229,1010.18274,183.71693,923.03156C146.02693,813.729,151.58722,687.8428,198.76761,582.2866C246.47702,475.49106,331.29858,390.88184,438.1873,343.44427C501.86456,315.27737,567.07495,302.50934,643.058,303.49506C647.00854,303.51154,661.33594,304.7766,675.18335,306.17807 Z"/>
</g>
<g style="fill:rgb(0,0,0); fill-opacity:1.0; stroke-linejoin: miter">
<path d="M433.8932,1010.85425L540.67896,876.33105L647.4646,741.8078Q645.521,740.2649,643.5773,738.7221Q536.7925,873.2459,430.0076,1007.7698Q431.95038,1009.312,433.8932,1010.85425"/>
</g>
<g style="fill:rgb(0,0,0); fill-opacity:1.0; stroke-linejoin: miter">
<path d="M392.42252,578.81836L388.73035,583.47034L385.03818,588.1223Q523.1028,697.7195,661.16724,807.3166Q664.8602,802.6652,668.55334,798.0139L392.42252,578.81836"/>
</g>
<g style="fill:rgb(0,0,0); fill-opacity:1.0; stroke-linejoin: miter">
<path d="M593.32874,519.1744L601.83167,518.4754L610.3346,517.7764Q622.62134,667.1255,634.90796,816.4746Q626.405,817.1746,617.9022,817.8746Q605.6155,668.5245,593.32874,519.1744"/>
</g>
<g style="fill:rgb(130,200,255); fill-opacity:1.0; stroke-linejoin: miter">
<path d="M627.06323,761.3652L627.91077,762.08136Q630.2925,764.4913,630.38586,767.75Q630.4673,771.02246,628.0842,773.6224Q625.67444,776.00397,622.4155,776.0973Q619.1432,776.17865,616.54333,773.7956Q614.16174,771.38586,614.0685,768.12695Q613.98694,764.8548,616.3701,762.2549Q618.7798,759.87305,622.0387,759.77966Q623.08875,759.7542,624.1245,759.99963L625.14307,760.3145Q626.151,760.69824,627.06323,761.3652"/>
</g>
</g>
</svg>